<svg width="24" height="16" viewBox="0 0 24 16" fill="none" xmlns="http://www.w3.org/2000/svg">
<path d="M1.33431 16.0002H16.001C16.7343 16.0002 17.3343 15.4002 17.3343 14.6669C17.3343 13.9335 16.7343 13.3335 16.001 13.3335H1.33431C0.600977 13.3335 0.000976562 13.9335 0.000976562 14.6669C0.000976562 15.4002 0.600977 16.0002 1.33431 16.0002ZM1.33431 9.33352H12.001C12.7343 9.33352 13.3343 8.73352 13.3343 8.00018C13.3343 7.26685 12.7343 6.66685 12.001 6.66685H1.33431C0.600977 6.66685 0.000976562 7.26685 0.000976562 8.00018C0.000976562 8.73352 0.600977 9.33352 1.33431 9.33352ZM0.000976562 1.33352C0.000976562 2.06685 0.600977 2.66685 1.33431 2.66685H16.001C16.7343 2.66685 17.3343 2.06685 17.3343 1.33352C17.3343 0.600183 16.7343 0.000183105 16.001 0.000183105H1.33431C0.600977 0.000183105 0.000976562 0.600183 0.000976562 1.33352ZM23.0676 11.8402L19.2276 8.00018L23.0676 4.16018C23.5876 3.64018 23.5876 2.80018 23.0676 2.28018C22.5476 1.76018 21.7076 1.76018 21.1876 2.28018L16.401 7.06685C15.881 7.58685 15.881 8.42685 16.401 8.94685L21.1876 13.7335C21.7076 14.2535 22.5476 14.2535 23.0676 13.7335C23.5743 13.2135 23.5876 12.3602 23.0676 11.8402Z" fill="white" fill-opacity="0.5"/>
</svg>
